<svg xmlns="http://www.w3.org/2000/svg" viewBox="0 0 100 100" width="100%" height="100%">
  <circle cx="50" cy="50" r="46" fill="#04535B" />
  <!-- Book pages -->
  <path d="M25 65 C 38 60, 45 60, 50 63 C 55 60, 62 60, 75 65 L 75 40 C 62 35, 55 35, 50 38 C 45 35, 38 35, 25 40 Z" fill="#F0FCFD" />
  <!-- Book spine -->
  <path d="M50 38 L 50 63" stroke="#0897A5" stroke-width="2" stroke-linecap="round" />
  <!-- Lightbulb overlay -->
  <g transform="translate(0, -6)">
    <!-- Bulb contour -->
    <path d="M50 24 C 42 24, 38 30, 38 37 C 38 43, 42 46, 44 49 C 46 51, 46 54, 46 56 L 54 56 C 54 54, 54 51, 56 49 C 58 46, 62 43, 62 37 C 62 30, 58 24, 50 24 Z" fill="none" stroke="#1B9FAB" stroke-width="3" stroke-linecap="round" stroke-linejoin="round" />
    <!-- Bulb base -->
    <path d="M46 56 L 54 56 M 47 59 L 53 59 M 48 62 L 52 62" stroke="#FF8700" stroke-width="2" stroke-linecap="round" />
    <!-- Glow lines -->
    <line x1="50" y1="18" x2="50" y2="21" stroke="#FF8700" stroke-width="2.5" stroke-linecap="round" />
    <line x1="36" y1="28" x2="39" y2="30" stroke="#FF8700" stroke-width="2.5" stroke-linecap="round" />
    <line x1="64" y1="28" x2="61" y2="30" stroke="#FF8700" stroke-width="2.5" stroke-linecap="round" />
  </g>
</svg>
